# xmcd
#
# Track frame offsets:
#	150
#	15032
#	27280
#	43845
#	56287
#	78337
#	91532
#	102129
#	111535
#	137820
#
# Disc length: 2004
#
# Revision: 2
# Processed by: cddbd v1.5.1PL0 Copyright (c) Steve Scherf et al.
# Submitted via: DiscPlay 4.0.3
# Normalized: r1:DSETVAR1,TDELIM( - )
#
DISCID=6d07d20a
DTITLE=Various Artist - Gospel Treasures
DYEAR=1900
DGENRE=
TTITLE0=No Charge - Shirley Caesar
TTITLE1=Waiting On Jesus - Jackson Southernaires
TTITLE2=There's Not A Friend Like Jesus - Mahalia Jackson
TTITLE3=Trust In The Lord - Sensational Williams Brothers
TTITLE4=More Church In The Home - Inez Andrews
TTITLE5=Our Father - Five Blind Boys
TTITLE6=Jesus My King - Dixie Hummingbirds
TTITLE7=Try Jesus - Reverand James Cleveland
TTITLE8=Our Thanks To Jesus - Willie Banks and The Messengers
TTITLE9=Working For Jesus - Mildred Clark
EXTD=
EXTT0=
EXTT1=
EXTT2=
EXTT3=
EXTT4=
EXTT5=
EXTT6=
EXTT7=
EXTT8=
EXTT9=
PLAYORDER=
